# xmcd
#
# Track frame offsets:
#	150
#	38147
#	60930
#	93035
#	124024
#	150366
#	177371
#	203405
#	245240
#	286264
#	306329
#
# Disc length: 4306 seconds
#
# Revision: 0
# Processed by: cddbd v1.5.2PL0 Copyright (c) Steve Scherf et al.
# Submitted via: EasyCDDAExtractor 16.1.0.1
#
DISCID=8710d00b
DTITLE=Pet Shop Boys - Elusive
DYEAR=1900
DGENRE=
TTITLE0=Shameless (9 Minutes Of Fame Mix)
TTITLE1=Hey Headmaster (Funkified Extended Mix)
TTITLE2=Tonight Is Forever (Amplified Extended Mix)
TTITLE3=Do I Have To ? (Melancholy Extended Mix)
TTITLE4=A Different Point Of View (Opionated Loop Extended Mix)
TTITLE5=A New Life (Reincarnated Extended Mix)
TTITLE6=Two Divided By Zero (Syntax Error Extended Mix)
TTITLE7=Forever In Love (External Extended Mix)
TTITLE8=My Octover Symphony (Long and Trippy Extended Mix)
TTITLE9=The View From Your Balcony (Scenic Vista Extended Mix)
TTITLE10=Saturday Night Forever (Love To Infinity Radio Edit Remix)
EXTD=
EXTT0=
EXTT1=
EXTT2=
EXTT3=
EXTT4=
EXTT5=
EXTT6=
EXTT7=
EXTT8=
EXTT9=
EXTT10=
PLAYORDER=
